<svg height="900pt" preserveAspectRatio="xMidYMid meet" viewBox="0 0 1200 900" width="1200pt" xmlns="http://www.w3.org/2000/svg"><g transform="matrix(.1 0 0 -.1 0 900)"><path d="m2875 4890c3-5 8-10 11-10 2 0 4 5 4 10 0 6-5 10-11 10-5 0-7-4-4-10z"/><path d="m2845 4851c-3-5-1-12 5-16 5-3 10 1 10 9 0 18-6 21-15 7z"/><path d="m4222 4620c0-14 2-19 5-12 2 6 2 18 0 25-3 6-5 1-5-13z"/><path d="m4884 4596c-3-8-4-23-2-33 3-11 6-6 9 15 6 34 2 42-7 18z"/><path d="m9647 4578c-9-31-2-33 11-3 6 14 8 25 3 25s-11-10-14-22z"/><path d="m2530 4583c0-4 5-15 10-23 8-13 10-13 10 2 0 9-4 20-10 23-5 3-10 3-10-2z"/><path d="m9714 4576c-4-10-2-22 4-28 8-8 13-7 18 6 4 10 2 22-4 28-8 8-13 7-18-6z"/><path d="m3310 4570c0-5 5-10 11-10 5 0 7 5 4 10-3 6-8 10-11 10-2 0-4-4-4-10z"/><path d="m2671 4554c0-11 3-14 6-6 3 7 2 16-1 19-3 4-6-2-5-13z"/><path d="m4551 4554c0-11 3-14 6-6 3 7 2 16-1 19-3 4-6-2-5-13z"/><path d="m2512 4540c0-14 2-19 5-12 2 6 2 18 0 25-3 6-5 1-5-13z"/><path d="m5492 4528c-7-7-11-21-11-32 1-21 1-21 6-1 3 11 10 26 15 33 13 15 6 16-10 0z"/><path d="m2281 4504c0-11 3-14 6-6 3 7 2 16-1 19-3 4-6-2-5-13z"/><path d="m2821 4504c0-11 3-14 6-6 3 7 2 16-1 19-3 4-6-2-5-13z"/><path d="m3292 4500c0-14 2-19 5-12 2 6 2 18 0 25-3 6-5 1-5-13z"/><path d="m3976 4505c-3-8-1-15 4-15 6 0 10 7 10 15s-2 15-4 15-6-7-10-15z"/><path d="m4271 4504c0-11 3-14 6-6 3 7 2 16-1 19-3 4-6-2-5-13z"/><path d="m5802 4500c0-14 2-19 5-12 2 6 2 18 0 25-3 6-5 1-5-13z"/><path d="m6151 4504c0-11 3-14 6-6 3 7 2 16-1 19-3 4-6-2-5-13z"/><path d="m2300 4497c0-8-7-20-15-27s-15-20-15-29c0-11 6-7 17 11 10 15 23 29 29 30 9 2 8 7-2 16-11 10-14 10-14-1z"/><path d="m3681 4494c0-11 3-14 6-6 3 7 2 16-1 19-3 4-6-2-5-13z"/><path d="m2247 4489c7-7 15-10 18-7s-2 9-12 12c-14 6-15 5-6-5z"/><path d="m2511 4474c0-16 4-38 9-49 6-13 7-5 3 25-7 53-13 66-12 24z"/><path d="m2350 4483c0-6 8-17 18-24 16-13 16-13 2 6-8 11-16 22-17 24-2 2-3 0-3-6z"/><path d="m4857 4451c-4-18-7-43-6-55 1-11 5-1 10 24s7 49 6 55c-2 5-7-5-10-24z"/><path d="m3391 4460c0-8 4-22 9-30 12-18 12-2 0 25-6 13-9 15-9 5z"/><path d="m2690 4450c0-5 5-10 10-10 6 0 10 5 10 10 0 6-4 10-10 10-5 0-10-4-10-10z"/><path d="m3307 4449c7-7 15-10 18-7s-2 9-12 12c-14 6-15 5-6-5z"/><path d="m5487 4446c-4-10-1-13 9-9 7 3 14 9 14 14 0 14-17 10-23-5z"/><path d="m5170 4435c0-8 2-15 4-15s6 7 10 15c3 8 1 15-4 15-6 0-10-7-10-15z"/><path d="m5202 4423c-6-16-10-41-10-58 1-16 3-24 5-17 3 6 9 10 14 7s8 17 8 45c-1 27-3 50-4 50s-7-12-13-27zm5-45c-3-8-6-5-6 6-1 11 2 17 5 13 3-3 4-12 1-19z"/><path d="m2243 4414c-6-13-7-24-3-24 9 0 25 39 18 45-2 2-8-7-15-21z"/><path d="m3101 4424c0-11 3-14 6-6 3 7 2 16-1 19-3 4-6-2-5-13z"/><path d="m4271 4424c0-11 3-14 6-6 3 7 2 16-1 19-3 4-6-2-5-13z"/><path d="m4541 4424c0-11 3-14 6-6 3 7 2 16-1 19-3 4-6-2-5-13z"/><path d="m4890 4376c0-42-4-66-12-69-10-3-10-7-2-18 6-8 14-32 17-54l6-40-12 33c-15 40-29 33-17-9 5-16 5-27 1-25-4 3-8-52-9-122 0-70-5-172-11-227-5-55-13-172-16-260-6-153-28-365-40-398-9-22-60-40-90-33-47 12-63 38-68 118-3 40-10 136-16 213-13 174-17 223-26 403-5 78-12 145-17 148-4 3-8 23-8 45 0 21-5 39-10 39-7 0-11-41-11-107 0-149-3-202-10-197-4 2-9-38-12-89-25-441-30-504-43-530-27-52-96-58-133-11-18 23-20 43-45 509-5 92-13 175-22 225-3 19-5 73-5 118 2 57-1 82-8 77-6-3-12-18-12-33-1-19-3-22-6-8-3 10 1 38 7 62 10 35 10 47 0 59-11 13-10 14 4 9 13-5 16 0 16 25 0 33-15 42-24 14-3-10-4 2-2 27 1 25 1 37-1 27-3-9-7-15-11-13-10 6-9-80 1-90 4-4 6-23 6-43l-1-36-7 30c-4 17-6-26-6-95 1-69 5-133 10-143 5-12 2-24-10-37-9-10-14-23-11-28s-1-60-9-123c-7-63-19-197-25-299-13-223-15-236-46-256-29-20-89-11-103 14-5 9-14 82-20 162-7 80-16 192-21 250-13 144-23 337-24 447-1 50-4 89-8 86-5-2-8 1-8 6 0 6 5 11 10 11 6 0 10 21 10 48l-1 47-14-30-13-30 5 40c2 22 8 60 13 85 6 26 6 60 1 80-8 32-9 33-10 8-1-32-12-35-35-12-17 17-19 10-6-21 6-14 9-15 10-5 3 31 19-26 19-70 1-33-2-41-9-30-12 19-12 14-9-85 5-166 3-265-5-265-4 0-6-27-4-60s1-55-2-49c-4 5-10-47-14-118-11-202-17-275-27-313-5-19-9-58-9-87 0-89-31-132-87-118-34 8-49 52-57 165-3 52-10 154-16 225-5 72-12 170-15 219s-10 96-14 104-6 37-3 64c3 37 2 49-7 44-6-4-11-1-11 9 0 9 3 14 8 12 4-3 7 59 7 136-1 83 4 148 10 157 9 13 8 13-9 0-13-10-17-23-13-50 2-19 1-44-4-55-6-16-8-13-9 15-2 49-15 13-23-60-3-30-2-47 2-37s11 18 16 17 12 7 16 17c6 14 8 12 8-9 1-16-2-28-6-28-13 0-32-49-22-56 5-3 9-11 9-17 0-8-3-8-9 1-5 8-11-29-15-90-10-132-12-156-25-253-5-44-12-125-16-180-11-173-24-295-35-314-19-37-73-42-94-8-13 21-19 56-31 207-2 36-9 124-15 195-6 72-12 141-15 155-2 14-6 53-7 87s-5 60-8 58-4 56-2 128c4 187 7 227 16 272 5 22 5 37 1 33-5-5-10-20-11-34-3-31-21-54-42-54-11 0-13-9-9-40 3-22 2-38-2-36-4 3-8-9-9-25s1-29 5-29c5 0 9-29 10-65s-2-63-6-61c-8 5-19-99-27-244-2-36-8-99-14-140s-17-142-24-225c-15-165-19-181-47-190-26-9-56 2-64 23-6 16-36 319-50 512-4 52-9 98-12 103-2 4-7 62-10 130-2 67-7 124-9 127-3 2-9-2-14-10-7-11-10-11-10-2 0 7 7 15 15 19 14 5 14 8 0 29-8 13-15 29-14 36 0 7 4 4 9-7 6-14 9-15 10-5 1 11 4 9 10-5s9 0 8 45c-1 36 2 75 6 88s3 22-3 22c-5 0-11 10-13 23-2 12-4-11-3-51 0-41-3-79-7-85-4-7-8 6-8 28 0 26-3 35-9 26-7-11-9-11-14 0-3 9-6 7-6-6-1-11-4-31-8-44-5-18-3-22 6-16 10 5 11 2 6-14-4-12-6-42-5-67 0-24 0-50 0-56 0-7-2-44-4-83-2-38-8-88-14-110s-15-105-22-185c-13-167-27-292-41-368-12-58-35-80-68-62-23 12-25 20-51 305-31 337-40 417-51 436-11 21-12 39-1 22 10-16 19 313 10 380-3 22-15 22-22-1-10-32-2-112 11-112 14 0 12-21-5-60l-11-25-2 25c-1 14-2 30-4 35-1 6-3 15-4 20-1 6-6 3-11-5-9-13-11-13-21 0-8 11-9 0-5-45 3-33 9-61 13-62 12-4 7-98-12-240-8-66-15-130-14-143 0-14-5-47-11-75-6-27-8-63-5-80 3-20 2-25-4-16-6 10-11-8-16-55-16-172-18-180-47-190-19-6-62 22-53 35 2 4-12 133-31 286-18 154-34 296-35 315 0 29-2 32-9 15-7-14-8-9-4 20 9 67 11 91 7 78-3-7-8-13-12-13-12 0-35 49-26 57 4 5 10 2 12-4 9-26 23-12 23 25 0 28 3 33 10 22 8-11 10-6 9 20-1 19 2 52 5 73 5 24 3 37-3 37-18 0-12 38 7 50 12 8 13 13 5 16-7 3-13 19-13 35s-4 29-9 29-7-19-5-42c4-45 0-43-10 5-4 15-11 27-16 27-14 0-12-27 4-53 8-12 17-49 20-82s2-50-2-37-10 23-14 23c-5-1-8 2-7 5 1 9-23 24-39 24-9 0-8-7 4-25 9-14 14-28 10-32-3-3-6-1-6 6s-4 9-10 6c-5-3-10-1-10 6 0 8-3 9-9 4-4-6-6-28-3-50 4-33 6-37 14-20 6 15 7 12 3-12-4-31 9-47 17-21 2 6 10 8 16 4 18-11 15-24-5-22-16 1-18-9-18-91 0-52-4-89-9-86-9 6-3-46 9-82 7-19 7-19-7-1-13 17-16 9-32-88-10-58-14-115-11-127 5-15 4-19-4-14-8 4-10-1-6-17 4-17-1-30-18-46-23-22-25-22-45-5-21 17-29 47-36 138-2 22-9 60-14 85-6 25-14 98-18 162-4 65-11 115-15 112-5-3-9 7-9 21 0 15 4 24 10 20s7-11 4-17c-4-6-2-8 3-5 6 4 11 24 10 44 0 21 3 58 6 83s3 36 0 25-10-26-15-32c-11-14-42-18-34-5 14 23-17 27-149 22l-140-7 123-1c73-1 122-6 122-12 0-5-13-10-30-10h-30v-65c0-37-4-65-10-65-5 0-10 18-10 40v40h-40c-22 0-40 5-40 10 0 6 18 10 40 10 29 0 40 4 40 15 0 12-17 15-82 17-184 3-454-5-465-14-9-7-13-7-13 1s-55 11-182 12c-108 1-173 4-158 9 14 4 169 9 345 11l320 3-340 6c-195 3-350 1-362-4-14-6-32-6-45 0-14 6-99 7-203 4l-180-6 160-3c162-3 273-18 148-20-56-1-63-3-63-21s-7-20-80-20c-71 0-80 2-80 19 0 15-11 19-61 25-99 10-99 10-99-25v-32l-61 7c-34 3-70 6-80 6-11 0-19 7-19 15 0 11 11 15 40 15 28 0 40 4 40 14s13 16 38 19c20 2 12 3-19 1s-60 0-65 5c-5 4-52 5-104 1l-95-7 80-2c92-2 143-21 58-21-33 0-53-4-53-11 0-8-5-7-16 2-17 14-198 21-316 12l-68-6v-2098-2099h6000 6000v2060c0 1596-3 2060-12 2060s-9 3 0 12c7 7 12 20 12 29 0 37-26 42-203 44-210 2-247-1-247-25 0-10-10-20-22-24-37-9-108-7-108 4 0 6 23 10 50 10 41 0 50 3 50 18 0 16-14 17-160 17s-160-1-160-17c0-14 9-18 40-18 22 0 40-4 40-10s-47-10-120-10h-120v24c0 22 5 25 43 28 34 2-955 1-1135-1l-48-1-2-67-2-68-3 65c-5 75 7 90 71 90 67 0 35 9-49 13-74 3-80 2-103-22-13-14-21-20-17-14 3 7 3 30-1 50l-7 38-13-47c-6-27-13-101-14-165-2-144-5-171-20-217-6-20-8-41-4-47 4-7 3-9-3-6-6 4-16-13-23-41-16-57-77-167-144-259-43-59-92-105-214-199-41-32-187-100-272-126l-75-23-1375-3c-1272-3-1377-2-1407 14-63 33-63 26-64 613 0 292-5 533-9 536-5 3-8-68-8-157 0-90-5-226-11-303s-15-225-21-330c-6-104-13-214-15-243-4-63-25-99-70-118-58-24-123 3-145 61-5 12-13 105-19 206s-14 216-17 254c-3 39-6 111-6 160-1 65-3 80-8 55l-7-35-2 32c0 17 4 35 9 38 6 4 7 20 3 38-7 34-6 141 2 192 4 25 3 27-5 10-8-16-9-13-5 15 2 19 1 42-4 49-6 10-10-38-10-130 0-79-10-305-21-502-11-196-19-361-18-365s-3-17-10-29c-7-13-9-23-5-23s-9-9-30-20c-52-28-90-26-129 9-31 28-32 29-40 152-25 395-35 630-38 894l-1 30-13-30c-8-20-15-104-19-250-4-121-14-321-22-445-9-124-15-242-13-262 2-21 1-38-3-38s-9-10-13-23c-6-25-54-57-86-57-39 0-83 31-93 65-3 11-11 110-17 220-20 387-22 420-26 427-3 4-5 59-6 123 0 76-4 115-11 115s-7 4 1 12c14 14 16 106 3 127-21 32-30-2-24-92 6-110 7-81-7-261-6-81-9-154-6-162 3-7 1-26-4-41s-11-80-14-143c-8-183-22-324-34-346-30-57-125-51-155 9-16 31-37 274-37 427 0 36-4 60-8 53-4-6-7 59-8 145 0 87-1 171-2 187-1 17-1 117 1 223 1 107-1 196-5 199-5 2-8-25-8-61zm-923-38c-3-8-6-5-6 6-1 11 2 17 5 13 3-3 4-12 1-19zm1230-130c-3-8-6-5-6 6-1 11 2 17 5 13 3-3 4-12 1-19zm-1831-20c-5-58-8-64-15-28-5 28 3 57 16 60 1 0 0-15-1-32zm6501 16c-3-3-12-4-19-1-8 3-5 6 6 6 11 1 17-2 13-5zm-7407-25c0-6-4-7-10-4-5 3-10 11-10 16 0 6 5 7 10 4 6-3 10-11 10-16zm277-26c-3-10-5-2-5 17s2 27 5 18c2-10 2-26 0-35zm8943 32c0-11 11-15 40-15 22 0 40-4 40-10s-33-10-80-10c-79 0-80 0-80 25 0 23 4 25 40 25 29 0 40-4 40-15zm-6173-17c-3-8-6-5-6 6-1 11 2 17 5 13 3-3 4-12 1-19zm-614-49c-5-5-7 7-4 29 5 34 6 35 9 8 2-16 0-32-5-37zm5747 41c0-5-18-10-40-10s-40 5-40 10c0 6 18 10 40 10s40-4 40-10zm320 0c0-5-20-10-45-10s-45 5-45 10c0 6 20 10 45 10s45-4 45-10zm-7002-70c0-22-1-22-8 5-4 17-8 39-8 50 0 16 2 15 8-5 4-14 8-36 8-50zm-1191 41c0-11-5-18-9-15s-5 11-1 19c7 21 12 19 10-4zm-2367-1c0-5-5-10-11-10-5 0-7 5-4 10 3 6 8 10 11 10 2 0 4-4 4-10zm1135 0c3-5 1-10-4-10-6 0-11 5-11 10 0 6 2 10 4 10 3 0 8-4 11-10zm1835-46c0-15-6-24-15-24-8 0-15 5-15 10 0 6 5 10 11 10s9 9 6 20-1 18 4 14c5-3 9-16 9-30zm2137 14c-3-8-6-5-6 6-1 11 2 17 5 13 3-3 4-12 1-19zm4373-3c0-14-4-25-10-25-5 0-10 11-10 25s5 25 10 25c6 0 10-11 10-25zm-6833-7c-3-8-6-5-6 6-1 11 2 17 5 13 3-3 4-12 1-19zm-300-40c-3-7-5-2-5 12s2 19 5 13c2-7 2-19 0-25zm1200-30c-3-8-6-5-6 6-1 11 2 17 5 13 3-3 4-12 1-19zm-1500-30c-3-8-6-5-6 6-1 11 2 17 5 13 3-3 4-12 1-19zm621-53c0-16-2-15-8 5-11 34-11 60 0 35 5-11 8-29 8-40zm1509 33c-3-8-6-5-6 6-1 11 2 17 5 13 3-3 4-12 1-19zm-1830-10c-3-8-6-5-6 6-1 11 2 17 5 13 3-3 4-12 1-19zm610-15c-3-10-5-4-5 12 0 17 2 24 5 18 2-7 2-21 0-30zm913 2c0-5-5-3-10 5s-10 20-10 25c0 6 5 3 10-5s10-19 10-25zm616-12c-10-26-18-8-9 23 5 21 8 24 11 11 2-10 1-25-2-34zm-1219 5c-3-8-6-5-6 6-1 11 2 17 5 13 3-3 4-12 1-19zm294-39c-5-13-10-19-10-12-1 15 10 45 15 40 3-2 0-15-5-28zm-1214-11c-3-8-6-5-6 6-1 11 2 17 5 13 3-3 4-12 1-19zm2750-80c-3-8-6-5-6 6-1 11 2 17 5 13 3-3 4-12 1-19zm-1840-30c-3-8-6-5-6 6-1 11 2 17 5 13 3-3 4-12 1-19zm620-10c-3-7-5-2-5 12s2 19 5 13c2-7 2-19 0-25zm1540 10c-3-8-6-5-6 6-1 11 2 17 5 13 3-3 4-12 1-19zm3900-70c-3-7-5-2-5 12s2 19 5 13c2-7 2-19 0-25zm-3580-20c-3-7-5-2-5 12s2 19 5 13c2-7 2-19 0-25zm10-120c-3-8-6-5-6 6-1 11 2 17 5 13 3-3 4-12 1-19z"/><path d="m2691 4410c0-14 6-36 14-50s14-36 14-50l-1-25-8 25c-8 24-8 24-9-6-1-32 23-54 32-30 7 16-3 68-16 84-5 6-13 27-17 45-7 27-8 28-9 7z"/><path d="m2716 4414c-7-23 1-54 15-54 11 0 11 27 0 55-8 20-8 20-15-1z"/><path d="m3323 4391c1-22 6-38 11-38 5 1 12-9 16-23 6-23 8-22 15 14 6 31 4 42-9 51-9 7-16 17-16 24 0 6-4 11-9 11s-8-18-8-39zm37-21c0-5-5-10-11-10-5 0-7 5-4 10 3 6 8 10 11 10 2 0 4-4 4-10z"/><path d="m6143 4394c-7-15-10-31-7-35 11-18 20-8 22 26 3 42 1 43-15 9z"/><path d="m9730 4410c0-5 5-10 11-10 5 0 7 5 4 10-3 6-8 10-11 10-2 0-4-4-4-10z"/><path d="m2267 4395c-11-11-14-26-10-53 7-45 13-54 13-19 0 14 5 38 10 53 13 33 8 40-13 19z"/><path d="m2381 4394c0-11 3-14 6-6 3 7 2 16-1 19-3 4-6-2-5-13z"/><path d="m2811 4394c0-11 3-14 6-6 3 7 2 16-1 19-3 4-6-2-5-13z"/><path d="m3596 4390c8-34 16-41 34-30 12 7 12 12 2 22-9 9-12 8-12-7-1-15-4-13-15 10-12 25-14 26-9 5z"/><path d="m9711 4394c0-11 3-14 6-6 3 7 2 16-1 19-3 4-6-2-5-13z"/><path d="m2521 4384c0-11 3-14 6-6 3 7 2 16-1 19-3 4-6-2-5-13z"/><path d="m3006 4391c-4-7-5-15-2-18 9-9 19 4 14 18-4 11-6 11-12 0z"/><path d="m3081 4370c0-29 1-32 10-17 7 11 7 23 0 35-9 14-10 11-10-18z"/><path d="m4579 4390c-3-8-4-45-2-81 2-52 0-68-12-73-10-4-15-20-15-53 0-44 1-45 15-27 9 11 13 13 10 4-2-8 0-40 4-70l9-55 1 66c1 40-4 70-11 77-10 10-10 14 0 21 9 6 12 34 10 107-2 54-6 92-9 84z"/><path d="m5821 4384c0-11 3-14 6-6 3 7 2 16-1 19-3 4-6-2-5-13z"/><path d="m9755 4389c-4-6-5-12-2-15 2-3 7 2 10 11 7 17 1 20-8 4z"/><path d="m2400 4375c0-8 7-15 15-15 9 0 12 6 9 15-4 8-10 15-15 15s-9-7-9-15z"/><path d="m5492 4315c0-41 3-73 5-71 8 8 9 137 1 142-4 3-7-29-6-71z"/><path d="m5516 4368c-3-13-5-32-5-43 1-11 5-2 10 19 10 42 6 62-5 24z"/><path d="m4260 4370c0-8 5-22 10-30 9-13 10-13 10 0 0 8-5 22-10 30-9 13-10 13-10 0z"/><path d="m9726 4364c-3-8-1-12 4-9s12-7 16-22c10-47 12-49 13-15 1 39-23 72-33 46z"/><path d="m2380 4351c0-5 5-13 10-16 6-3 10-2 10 4 0 5-4 13-10 16-5 3-10 2-10-4z"/><path d="m3052 4340c0-14 2-19 5-12 2 6 2 18 0 25-3 6-5 1-5-13z"/><path d="m3667 4353c-4-3-7-18-6-32 1-26 1-25 10 3 9 31 7 41-4 29z"/><path d="m4852 4340c0-14 2-19 5-12 2 6 2 18 0 25-3 6-5 1-5-13z"/><path d="m2242 4330c0-14 2-19 5-12 2 6 2 18 0 25-3 6-5 1-5-13z"/><path d="m3314 4250c-1-74 0-79 6-35 5 28 11 59 15 70 5 15 4 17-3 6-8-11-11-8-14 15-2 16-4-9-4-56z"/><path d="m3605 4308c1-13 3-29 4-36 0-7 5-11 9-8 10 6 3 66-8 66-4 0-6-10-5-22z"/><path d="m3001 4304c0-11 3-14 6-6 3 7 2 16-1 19-3 4-6-2-5-13z"/><path d="m3932 4300c0-14 2-19 5-12 2 6 2 18 0 25-3 6-5 1-5-13z"/><path d="m3041 4302c-1-7-5-10-11-7-15 9-12-4 4-21 18-17 26-6 15 21-4 11-8 14-8 7z"/><path d="m4281 4284c0-11 3-14 6-6 3 7 2 16-1 19-3 4-6-2-5-13z"/><path d="m5816 4285c-9-26-7-32 5-12 6 10 9 21 6 23-2 3-7-2-11-11z"/><path d="m2208 4273c7-3 16-2 19 1 4 3-2 6-13 5-11 0-14-3-6-6z"/><path d="m3618 4217c-3-19-2-25 4-19s8 18 6 28c-3 14-5 12-10-9z"/><path d="m18 4223c12-2 32-2 45 0 12 2 2 4-23 4s-35-2-22-4z"/><path d="m178 4223c12-2 32-2 45 0 12 2 2 4-23 4s-35-2-22-4z"/><path d="m10138 4223c34-2 90-2 125 0 34 2 6 3-63 3s-97-1-62-3z"/><path d="m10438 4223c23-2 61-2 85 0 23 2 4 4-43 4s-66-2-42-4z"/><path d="m10738 4223c12-2 32-2 45 0 12 2 2 4-23 4s-35-2-22-4z"/><path d="m10978 4223c12-2 32-2 45 0 12 2 2 4-23 4s-35-2-22-4z"/><path d="m11138 4223c12-2 32-2 45 0 12 2 2 4-23 4s-35-2-22-4z"/><path d="m11318 4223c23-2 61-2 85 0 23 2 4 4-43 4s-66-2-42-4z"/><path d="m11538 4223c12-2 32-2 45 0 12 2 2 4-23 4s-35-2-22-4z"/><path d="m11718 4223c23-2 61-2 85 0 23 2 4 4-43 4s-66-2-42-4z"/><path d="m11938 4223c12-2 32-2 45 0 12 2 2 4-23 4s-35-2-22-4z"/><path d="m4231 3894c0-11 3-14 6-6 3 7 2 16-1 19-3 4-6-2-5-13z"/></g></svg>